<svg width="20" height="20" viewBox="0 0 20 20" fill="none" xmlns="http://www.w3.org/2000/svg">
<g clip-path="url(#clip0_9417_9279)">
<path d="M1.26127 12.9054L4.73294 16.3771C5.20176 16.8458 5.83753 17.1091 6.50044 17.1091C7.16335 17.1091 7.79912 16.8458 8.26794 16.3771L18.9896 5.65542C19.1414 5.49826 19.2254 5.28775 19.2235 5.06926C19.2216 4.85076 19.134 4.64175 18.9795 4.48724C18.8249 4.33273 18.6159 4.24509 18.3974 4.2432C18.1789 4.2413 17.9684 4.32529 17.8113 4.47709L7.0896 15.1988C6.93333 15.355 6.72141 15.4427 6.50044 15.4427C6.27947 15.4427 6.06754 15.355 5.91127 15.1988L2.4396 11.7271C2.28244 11.5753 2.07193 11.4913 1.85344 11.4932C1.63494 11.4951 1.42593 11.5827 1.27142 11.7372C1.11691 11.8917 1.02927 12.1008 1.02738 12.3193C1.02548 12.5378 1.10947 12.7483 1.26127 12.9054Z" fill="#374957"/>
</g>
<defs>
<clipPath id="clip0_9417_9279">
<rect width="20" height="20" fill="white"/>
</clipPath>
</defs>
</svg>
