<svg width="20" height="20" viewBox="0 0 20 20" fill="none" xmlns="http://www.w3.org/2000/svg">
<g clip-path="url(#clip0_9413_9213)">
<path d="M19.7588 13.5754L12.9505 6.76708C12.5634 6.37906 12.1036 6.0712 11.5974 5.86115C11.0912 5.65109 10.5485 5.54297 10.0005 5.54297C9.45242 5.54297 8.90974 5.65109 8.40353 5.86115C7.89732 6.0712 7.43753 6.37906 7.05048 6.76708L0.242147 13.5754C0.0852269 13.7323 -0.00292969 13.9452 -0.00292969 14.1671C-0.00292969 14.389 0.0852269 14.6018 0.242147 14.7587C0.399066 14.9157 0.611895 15.0038 0.833813 15.0038C1.05573 15.0038 1.26856 14.9157 1.42548 14.7587L8.23381 7.95042C8.70257 7.48225 9.33798 7.21928 10.0005 7.21928C10.663 7.21928 11.2984 7.48225 11.7671 7.95042L18.5755 14.7587C18.653 14.8369 18.7451 14.8989 18.8467 14.9412C18.9482 14.9835 19.0571 15.0052 19.1671 15.0052C19.2772 15.0052 19.3861 14.9835 19.4876 14.9412C19.5892 14.8989 19.6813 14.8369 19.7588 14.7587C19.8369 14.6813 19.8989 14.5891 19.9412 14.4876C19.9835 14.386 20.0053 14.2771 20.0053 14.1671C20.0053 14.0571 19.9835 13.9482 19.9412 13.8466C19.8989 13.7451 19.8369 13.6529 19.7588 13.5754Z" fill="#374957"/>
</g>
<defs>
<clipPath id="clip0_9413_9213">
<rect width="20" height="20" fill="white"/>
</clipPath>
</defs>
</svg>
