<svg width="16" height="16" viewBox="0 0 16 16" fill="none" xmlns="http://www.w3.org/2000/svg">
<g clip-path="url(#clip0_9409_9263)">
<path d="M7.33755 10.9588L7.33288 0.666829C7.33288 0.490018 7.40312 0.320449 7.52814 0.195425C7.65317 0.0704009 7.82274 0.000162244 7.99955 0.000162244C8.17636 0.000162244 8.34593 0.0704009 8.47095 0.195425C8.59598 0.320449 8.66621 0.490018 8.66621 0.666829L8.67088 10.9475L10.6122 9.00549C10.7372 8.88051 10.9068 8.8103 11.0835 8.8103C11.2603 8.8103 11.4299 8.88051 11.5549 9.00549V9.00549C11.6799 9.13051 11.7501 9.30005 11.7501 9.47683C11.7501 9.6536 11.6799 9.82314 11.5549 9.94816L9.41421 12.0915C9.22848 12.2773 9.00795 12.4248 8.76521 12.5254C8.52248 12.626 8.2623 12.6777 7.99955 12.6777C7.7368 12.6777 7.47662 12.626 7.23388 12.5254C6.99115 12.4248 6.77062 12.2773 6.58488 12.0915L4.44421 9.95016C4.31923 9.82514 4.24902 9.6556 4.24902 9.47883C4.24902 9.30205 4.31923 9.13251 4.44421 9.00749V9.00749C4.56923 8.88251 4.73877 8.8123 4.91555 8.8123C5.09232 8.8123 5.26186 8.88251 5.38688 9.00749L7.33755 10.9588Z" fill="#374957"/>
<path d="M14.6667 11.3327V13.9993C14.6667 14.1762 14.5964 14.3457 14.4714 14.4707C14.3464 14.5958 14.1768 14.666 14 14.666H2C1.82319 14.666 1.65362 14.5958 1.5286 14.4707C1.40357 14.3457 1.33333 14.1762 1.33333 13.9993V11.3327C1.33333 11.1559 1.2631 10.9863 1.13807 10.8613C1.01305 10.7363 0.843478 10.666 0.666667 10.666V10.666C0.489856 10.666 0.320286 10.7363 0.195262 10.8613C0.0702379 10.9863 0 11.1559 0 11.3327L0 13.9993C0 14.5298 0.210714 15.0385 0.585786 15.4136C0.960859 15.7886 1.46957 15.9993 2 15.9993H14C14.5304 15.9993 15.0391 15.7886 15.4142 15.4136C15.7893 15.0385 16 14.5298 16 13.9993V11.3327C16 11.1559 15.9298 10.9863 15.8047 10.8613C15.6797 10.7363 15.5101 10.666 15.3333 10.666C15.1565 10.666 14.987 10.7363 14.8619 10.8613C14.7369 10.9863 14.6667 11.1559 14.6667 11.3327Z" fill="#374957"/>
</g>
<defs>
<clipPath id="clip0_9409_9263">
<rect width="16" height="16" fill="white"/>
</clipPath>
</defs>
</svg>
